<svg xmlns="http://www.w3.org/2000/svg" version="1.1" xmlns:xlink="http://www.w3.org/1999/xlink" xmlns:svgjs="http://svgjs.com/svgjs" width="100%" height="100%" viewBox="0 0 1000 600"><rect width="1000" height="600" x="0" y="0" fill="0000"/><g><rect width="333.3333333333333" height="333.3333333333333" rx="13.333333333333334" ry="13.333333333333334" y="110.86572598886706" fill="black" transform="matrix(1.4101427390735801,0,0,1.4101427390735801,0,-91.36028175985884)" x="88.64350891113281"/><path d="M226.92111048103374 345.6864888939894Q234.0833337732686 343.5852688114095 239.77696238413043 338.1401716081647Q245.47059099499222 332.672480640591 248.06887389280612 324.71947559684753L248.06887389280612 324.71947559684753Q250.1700939753861 318.5287841707518 250.82531314092176 310.30465395506246Q251.48053230645746 302.10311750370204 251.48053230645746 285.02223167111663L251.48053230645746 285.02223167111663L251.48053230645746 212.78996711188972L235.86824115524513 210.66615326498095L235.86824115524513 202.53239810660693L283.69924023935005 202.53239810660693L283.69924023935005 210.66615326498095L268.8777308396463 212.78996711188972L268.8777308396463 278.6733838947191L268.8777308396463 286.31007623785916Q268.8777308396463 299.1659281409559 268.56141813904287 306.9833705987264Q268.2451054384394 314.7782192921682 267.0928234576698 320.3136915527283L267.0928234576698 320.3136915527283Q264.1782278592524 333.3276998061267 254.23697155457307 341.80036142943294Q244.31830901422256 350.2504292884104 231.30430076082416 352.5323994856209L231.30430076082416 352.5323994856209L226.92111048103374 345.6864888939894Z " fill="white" transform="matrix(1.4101427390735801,0,0,1.4101427390735801,0,-91.36028175985884)"/><path d="M521.8935084810612 340.7268425510514L521.8935084810612 216.33795366216248L506.31017514772793 213.92128699549582L506.31017514772793 203.92128699549582L532.8935084810612 203.92128699549582Q540.0879529255058 203.92128699549582 547.0879529255058 203.33795366216248L547.0879529255058 203.33795366216248Q557.8935084810612 202.53239810660693 567.5046195921723 202.53239810660693L567.5046195921723 202.53239810660693Q596.5046195921723 202.7268425510514 608.5046195921723 213.33795366216248Q620.5046195921723 223.92128699549585 620.5046195921723 245.33795366216248L620.5046195921723 245.33795366216248Q620.5046195921723 261.3379536621625 613.0879529255058 273.143509217718Q605.6990640366168 284.92128699549585 592.5879529255058 291.143509217718Q579.5046195921724 297.3379536621625 562.5046195921724 297.3379536621625L562.5046195921724 297.3379536621625Q556.6990640366168 297.3379536621625 550.6990640366168 297.03239810660693Q544.6990640366168 296.7268425510514 543.3101751477279 296.53239810660693L543.3101751477279 296.53239810660693L543.3101751477279 340.53239810660693L570.6990640366168 342.7268425510514L570.6990640366168 352.53239810660693L505.31017514772793 352.53239810660693L505.31017514772793 342.7268425510514L521.8935084810612 340.7268425510514ZM543.3101751477279 285.53239810660693Q548.8935084810612 286.53239810660693 562.5046195921724 286.53239810660693L562.5046195921724 286.53239810660693Q578.3101751477279 286.53239810660693 588.1990640366168 276.92128699549585Q598.0879529255058 267.3379536621625 598.0879529255058 245.53239810660693L598.0879529255058 245.53239810660693Q598.0879529255058 228.33795366216248 589.5046195921724 220.8379536621625Q580.8935084810612 213.33795366216248 562.6990640366168 213.33795366216248L562.6990640366168 213.33795366216248Q556.3101751477279 213.33795366216248 549.0879529255058 214.14350921771805L549.0879529255058 214.14350921771805Q544.6990640366168 214.53239810660693 543.3101751477279 214.53239810660693L543.3101751477279 214.53239810660693L543.3101751477279 285.53239810660693Z " fill="white" transform="matrix(1.4101427390735801,0,0,1.4101427390735801,0,-91.36028175985884)"/></g></svg>